<mxfile host="app.diagrams.net" modified="2024-02-12T14:30:59.098Z" agent="Mozilla/5.0 (Macintosh; Intel Mac OS X 10_15_7) AppleWebKit/537.36 (KHTML, like Gecko) Chrome/121.0.0.0 Safari/537.36" etag="deFrMaagKIDtgZy6RTva" version="23.1.2" type="github">
  <diagram name="第 1 页" id="3dYkp7Auj3zQR0FbJ3zM">
    <mxGraphModel dx="1026" dy="567" grid="1" gridSize="10" guides="1" tooltips="1" connect="1" arrows="1" fold="1" page="1" pageScale="1" pageWidth="827" pageHeight="1169" math="0" shadow="0">
      <root>
        <mxCell id="0" />
        <mxCell id="1" parent="0" />
      </root>
    </mxGraphModel>
  </diagram>
</mxfile>
